# xmcd
#
# Track frame offsets: 
#        150
#        21016
#        45981
#        65806
#        83092
#        99951
#        122860
#        149160
#        165197
#        183440
#        205007
#        230281
#        242565
#
# Disc length: 3685 seconds
#
# Revision: 0
# Processed by: cddbd v1.5PL3 Copyright (c) Steve Scherf et al.
# Submitted via: ExactAudioCopy v0.90b4
#
DISCID=a40e630d
DTITLE=The Booze Brothers with the Wolf Island Horns - Live på Kulturb
DTITLE=aren 26 februari 2004
DYEAR=2004
DGENRE=Blues
TTITLE0=Talk to Your Daughter
TTITLE1=Oh, Pretty Woman
TTITLE2=Love That Woman
TTITLE3=Rollin' Man
TTITLE4=That Thing You Do
TTITLE5=Evil Hearted Woman
TTITLE6=Too Much Woman
TTITLE7=J-s Blues
TTITLE8=It Ain't Me
TTITLE9=Since I Met You Baby
TTITLE10=Blues For Baby
TTITLE11=She Loves My Automobile
TTITLE12=Brand New Lover
EXTD=
EXTT0=
EXTT1=
EXTT2=
EXTT3=
EXTT4=
EXTT5=
EXTT6=
EXTT7=
EXTT8=
EXTT9=
EXTT10=
EXTT11=
EXTT12=
PLAYORDER=
